<svg width="260" height="260" viewBox="0 0 260 260" fill="none" xmlns="http://www.w3.org/2000/svg">
  <circle cx="24" cy="34" r="5" fill="#F59E0B" fill-opacity="0.65" />
  <circle cx="214" cy="40" r="4" fill="#EF4444" fill-opacity="0.6" />
  <circle cx="190" cy="196" r="3.5" fill="#22C55E" fill-opacity="0.6" />
  <circle cx="60" cy="196" r="4" fill="#3B82F6" fill-opacity="0.55" />
  <circle cx="120" cy="228" r="3" fill="#E879F9" fill-opacity="0.55" />

  <rect x="86" y="28" width="7" height="7" rx="2" fill="#10B981" fill-opacity="0.6" />
  <rect x="168" y="96" width="6" height="10" rx="2" fill="#F472B6" fill-opacity="0.55" />
  <rect x="34" y="118" width="9" height="4" rx="2" fill="#F97316" fill-opacity="0.55" />

  <path d="M120 72l4.6 9.3 10.3 1.5-7.4 7.2 1.7 10.2-9.2-4.9-9.2 4.9 1.7-10.2-7.4-7.2 10.3-1.5L120 72z" fill="#60A5FA" fill-opacity="0.55" />
  <path d="M208 140l3.6 7.2 7.9 1.1-5.7 5.5 1.3 7.9-7.1-3.7-7.1 3.7 1.3-7.9-5.7-5.5 7.9-1.1L208 140z" fill="#FBBF24" fill-opacity="0.6" />

  <path d="M58 64c10 6 18 6 28 0" stroke="#A855F7" stroke-opacity="0.5" stroke-width="3" stroke-linecap="round" />
  <path d="M156 226c8 4 16 4 24 0" stroke="#EF4444" stroke-opacity="0.5" stroke-width="3" stroke-linecap="round" />

  <path d="M32 172l9 6-10 4" stroke="#22C55E" stroke-opacity="0.55" stroke-width="3" stroke-linecap="round" stroke-linejoin="round" />
  <path d="M232 86l-9 6 10 4" stroke="#38BDF8" stroke-opacity="0.55" stroke-width="3" stroke-linecap="round" stroke-linejoin="round" />
</svg>
