<svg width="1600" height="900" viewBox="0 0 1600 900" fill="none" xmlns="http://www.w3.org/2000/svg">
  <defs>
    <linearGradient id="bg" x1="0" y1="0" x2="1600" y2="900" gradientUnits="userSpaceOnUse">
      <stop offset="0" stop-color="#f8fafc"/>
      <stop offset="0.5" stop-color="#eef2ff"/>
      <stop offset="1" stop-color="#e2e8f0"/>
    </linearGradient>
    <radialGradient id="glow1" cx="0" cy="0" r="1" gradientUnits="userSpaceOnUse" gradientTransform="translate(320 220) rotate(35) scale(380 280)">
      <stop stop-color="#c7d2fe" stop-opacity="0.8"/>
      <stop offset="1" stop-color="#c7d2fe" stop-opacity="0"/>
    </radialGradient>
    <radialGradient id="glow2" cx="0" cy="0" r="1" gradientUnits="userSpaceOnUse" gradientTransform="translate(1180 280) rotate(15) scale(420 300)">
      <stop stop-color="#bae6fd" stop-opacity="0.7"/>
      <stop offset="1" stop-color="#bae6fd" stop-opacity="0"/>
    </radialGradient>
    <radialGradient id="glow3" cx="0" cy="0" r="1" gradientUnits="userSpaceOnUse" gradientTransform="translate(780 720) rotate(-10) scale(520 320)">
      <stop stop-color="#fecdd3" stop-opacity="0.55"/>
      <stop offset="1" stop-color="#fecdd3" stop-opacity="0"/>
    </radialGradient>
  </defs>
  <rect width="1600" height="900" fill="url(#bg)"/>
  <circle cx="320" cy="220" r="420" fill="url(#glow1)"/>
  <circle cx="1180" cy="280" r="460" fill="url(#glow2)"/>
  <circle cx="780" cy="720" r="520" fill="url(#glow3)"/>
  <path d="M120 520C260 420 460 420 600 520C740 620 940 620 1080 520C1220 420 1380 420 1480 470" stroke="#e2e8f0" stroke-width="2" stroke-linecap="round"/>
  <path d="M140 600C280 520 460 520 640 600C820 680 1040 680 1220 600C1400 520 1520 520 1580 550" stroke="#dbeafe" stroke-width="2" stroke-linecap="round"/>
</svg>
